<svg width="592" height="563" viewBox="0 0 592 563" fill="none" xmlns="http://www.w3.org/2000/svg">
<path d="M186.988 534.387L192.028 516.463L155.962 506.322L166.034 470.499L129.968 460.358L140.041 424.535L103.974 414.394L114.047 378.571L77.9809 368.43L88.0534 332.607L51.9873 322.466L62.0597 286.643L25.9937 276.502L36.0661 240.679L4.75626e-05 230.538L50.3521 51.3652L86.4182 61.5059L96.4907 25.6826L132.557 35.8233L142.629 -2.71913e-05L250.855 30.4298L240.782 66.2532L276.848 76.3939L266.776 112.217L302.842 122.358L292.769 158.181L328.836 168.322L338.908 132.499L374.974 142.639L385.047 106.816L421.113 116.957L431.185 81.1335L539.386 111.556L529.313 147.38L565.38 157.52L555.307 193.344L591.373 203.485L541.004 382.626L504.938 372.485L494.865 408.309L458.799 398.168L448.727 433.991L412.661 423.85L402.588 459.674L366.522 449.533L356.45 485.356L320.383 475.216L310.311 511.039L274.245 500.898L264.172 536.722L228.106 526.581L218.034 562.404L181.968 552.263L186.988 534.387Z" fill="#FF6565"/>
</svg>
